<svg xmlns="http://www.w3.org/2000/svg" viewBox="0 0 64 64"><g data-name="No Camera"><circle cx="32" cy="32" r="30" fill="#d1e7ff"/><path fill="#8bc4ff" d="M50,21V43a4,4,0,0,1-4,4H18a4,4,0,0,1-4-4V21a4,4,0,0,1,4-4h6l1.5-3.74A2,2,0,0,1,27.35,12h9.3a2,2,0,0,1,1.85,1.26L40,17h6A4,4,0,0,1,50,21Z"/><circle cx="32" cy="32" r="9" fill="#a2d0ff"/><path fill="#2e58ff" d="M32,0A32,32,0,1,0,64,32,32,32,0,0,0,32,0Zm0,4a27.88,27.88,0,0,1,18.32,6.85L46.16,15c-.36,0,.66,0-4.81,0l-1-2.49A4,4,0,0,0,36.65,10h-9.3a4,4,0,0,0-3.71,2.51l-1,2.49H18a6,6,0,0,0-6,6V43a6,6,0,0,0,1.85,4.32l-3,3C-4.73,32.36,7.93,4,32,4ZM48,21V43a2,2,0,0,1-2,2H21.83l3.94-3.94A11,11,0,0,0,41.06,25.77l6.26-6.26A2,2,0,0,1,48,21ZM35.33,25.84l-9.49,9.49A7,7,0,0,1,35.33,25.84ZM28.67,38.16l9.49-9.49A7,7,0,0,1,28.67,38.16Zm9.56-15.22A11,11,0,0,0,22.94,38.23l-6.26,6.26A2,2,0,0,1,16,43V21a2,2,0,0,1,2-2h6a2,2,0,0,0,1.86-1.26L27.35,14h9.3l1.49,3.74A2,2,0,0,0,40,19h2.17ZM32,60a27.88,27.88,0,0,1-18.32-6.85L17.84,49H46a6,6,0,0,0,6-6V21a6,6,0,0,0-1.85-4.32l3-3C68.73,31.64,56.07,60,32,60Z"/></g></svg>