<svg width="50" height="50" xmlns="http://www.w3.org/2000/svg" fill="none">

 <g>
  <title>Layer 1</title>
  <path id="svg_1" fill="black" d="m9.79211,0.01619c-0.07818,0.01955 -0.47884,0.08796 -0.87951,0.14659c-1.41698,0.23454 -3.00987,0.88929 -4.3389,1.77859c-0.76224,0.51794 -2.2574,2.01313 -2.77534,2.77538c-0.85996,1.2802 -1.49516,2.80471 -1.78833,4.29013c-0.20521,1.01632 -0.20521,30.93972 0,31.95602c0.93815,4.7299 4.67117,8.2577 9.44005,8.9418c0.92834,0.1271 29.85444,0.1271 30.78274,0c2.4822,-0.3518 4.8959,-1.5831 6.5572,-3.3324c1.5929,-1.6906 2.6386,-3.8601 2.9708,-6.1958c0.1271,-0.9283 0.1271,-29.8549 0,-30.78327c-0.1661,-1.1727 -0.4788,-2.20858 -0.987,-3.26401c-1.4854,-3.11742 -4.1141,-5.24783 -7.5149,-6.09803c-0.8306,-0.20522 -0.9088,-0.20523 -16.0754,-0.22477c-8.3847,-0.00977 -15.3132,-0.00977 -15.39141,0.00977z"/>
  <path id="svg_3" fill="white" d="m38.1875,16.315c0.6153,0.4394 0.8692,1.5723 0.4786,2.1875c-0.3809,0.6152 -8.6133,9.9121 -8.9161,10.0781c-0.1855,0.0977 -0.5273,0.166 -0.8105,0.1563c-0.4492,0 -0.752,-0.1563 -4.0234,-2.0215c-1.9532,-1.1035 -3.5743,-2.0117 -3.6133,-2.0117c-0.0489,0.0097 -1.4356,1.8359 -3.1055,4.0625c-1.6601,2.2363 -3.1641,4.1699 -3.3398,4.3066c-0.8692,0.6738 -2.2168,0.2637 -2.627,-0.8008c-0.3418,-0.9082 -0.4199,-0.791 3.7012,-6.2597c2.5488,-3.3887 3.8379,-5.0293 4.0527,-5.1563c0.2149,-0.1172 0.5176,-0.1855 0.8496,-0.1855c0.4981,0 0.6739,0.0879 4.1114,2.0605c2.9296,1.6797 3.623,2.041 3.7402,1.9434c0.0781,-0.0684 1.7578,-1.9629 3.7305,-4.2285c1.9726,-2.2559 3.7011,-4.1602 3.8281,-4.2286c0.6054,-0.3222 1.4062,-0.2832 1.9433,0.0977z"/>
 </g>
</svg>